<?xml version="1.0" encoding="utf-8"?>
<!-- Generator: Adobe Illustrator 24.1.1, SVG Export Plug-In . SVG Version: 6.00 Build 0)  -->
<svg version="1.1" id="Outline" xmlns="http://www.w3.org/2000/svg" xmlns:xlink="http://www.w3.org/1999/xlink" x="0px" y="0px"
	 viewBox="0 0 24 24" style="enable-background:new 0 0 24 24;" xml:space="preserve">
<path d="M12,23c-1.2,0-2.3-0.4-3.2-1.2C4.8,18.5,0,13.5,0,9c-0.1-3.7,2.8-6.9,6.5-7c2.1,0,4.1,1.1,5.3,2.9L12,5.2l0.2-0.3
	c1.2-1.8,3.1-2.9,5.3-2.9c3.7,0.2,6.6,3.3,6.5,7c0,4.5-4.8,9.5-8.8,12.9C14.3,22.6,13.2,23,12,23z M6.5,3.9C3.9,4.1,1.9,6.3,2,9
	c0,2.9,2.9,7,8.1,11.3c0.5,0.5,1.2,0.7,1.9,0.7c0.7,0,1.3-0.2,1.8-0.6l0.1-0.1C19.1,16,22,11.9,22,9c0.1-2.6-1.9-4.9-4.5-5
	c-2.6,0.2-4.6,2.4-4.5,5c0,0.5-0.4,1-1,1c-0.6,0-1-0.4-1-1C11.1,6.4,9.1,4.1,6.5,3.9L6.5,3.9L6.5,3.9z"/>
</svg>
